<svg xmlns="http://www.w3.org/2000/svg" width="1280" height="720" viewBox="0 0 1280 720" role="img" aria-labelledby="title desc">
<title id="title">Ketika AI Mulai Ikut Ngerjain Misteri Matematika</title>
<desc id="desc">Thumbnail 16:9 bergaya gelap modern dengan logo OpenAI sederhana, rumus matematika, titik geometri, dan judul artikel.</desc>
<defs>
<radialGradient id="bgGlow" cx="78%" cy="28%" r="65%"><stop offset="0%" stop-color="#22d3ee" stop-opacity="0.38"/><stop offset="42%" stop-color="#7c3aed" stop-opacity="0.18"/><stop offset="100%" stop-color="#070A12" stop-opacity="1"/></radialGradient>
<linearGradient id="card" x1="0" x2="1" y1="0" y2="1"><stop offset="0%" stop-color="#111827" stop-opacity="0.95"/><stop offset="100%" stop-color="#0b1020" stop-opacity="0.86"/></linearGradient>
<linearGradient id="accent" x1="0" x2="1"><stop offset="0%" stop-color="#22d3ee"/><stop offset="55%" stop-color="#a78bfa"/><stop offset="100%" stop-color="#facc15"/></linearGradient>
<filter id="softShadow" x="-20%" y="-20%" width="140%" height="140%"><feDropShadow dx="0" dy="22" stdDeviation="24" flood-color="#000000" flood-opacity="0.45"/></filter>
<filter id="glow" x="-50%" y="-50%" width="200%" height="200%"><feGaussianBlur stdDeviation="5" result="blur"/><feMerge><feMergeNode in="blur"/><feMergeNode in="SourceGraphic"/></feMerge></filter>
<style>.sans{font-family:Inter,ui-sans-serif,system-ui,-apple-system,Segoe UI,Arial,sans-serif}.mono{font-family:'JetBrains Mono','Fira Code',Consolas,monospace}.formula{fill:#b6c2d9;opacity:.42;font-size:28px}.small{fill:#94a3b8;font-size:20px;letter-spacing:.06em}</style>
</defs>
<rect width="1280" height="720" fill="#070A12"/><rect width="1280" height="720" fill="url(#bgGlow)"/>
<g opacity="0.15" stroke="#94a3b8" stroke-width="1"><path d="M0 120H1280M0 240H1280M0 360H1280M0 480H1280M0 600H1280"/><path d="M160 0V720M320 0V720M480 0V720M640 0V720M800 0V720M960 0V720M1120 0V720"/></g>
<g class="mono formula"><text x="56" y="82">∀ε&gt;0 ∃N : n&gt;N ⇒ |aₙ-L|&lt;ε</text><text x="764" y="98">Erdős • PNT • combinatorics</text><text x="830" y="600">χ(G) ≥ ω(G)</text><text x="72" y="642">∑ pᵢ → pattern, distance, proof</text><text x="910" y="190">d(pᵢ,pⱼ)=r</text></g>
<g transform="translate(780 238)" opacity="0.88"><g stroke="#67e8f9" stroke-width="2" opacity="0.55"><line x1="20" y1="90" x2="170" y2="34"/><line x1="170" y1="34" x2="302" y2="104"/><line x1="302" y1="104" x2="240" y2="250"/><line x1="240" y1="250" x2="80" y2="230"/><line x1="80" y1="230" x2="20" y2="90"/><line x1="20" y1="90" x2="302" y2="104"/><line x1="170" y1="34" x2="240" y2="250"/><line x1="80" y1="230" x2="302" y2="104"/></g><g fill="#facc15" filter="url(#glow)"><circle cx="20" cy="90" r="8"/><circle cx="170" cy="34" r="8"/><circle cx="302" cy="104" r="8"/><circle cx="240" cy="250" r="8"/><circle cx="80" cy="230" r="8"/></g><path d="M8 314 C80 284,180 316,322 286" fill="none" stroke="url(#accent)" stroke-width="5" stroke-linecap="round" opacity="0.85"/><text class="mono" x="36" y="362" fill="#e2e8f0" font-size="23">AI menemukan jalur baru</text></g>
<g filter="url(#softShadow)"><rect x="54" y="160" width="670" height="390" rx="34" fill="url(#card)" stroke="#1f2a44" stroke-width="2"/><rect x="84" y="190" width="160" height="40" rx="20" fill="#0f172a" stroke="#22d3ee" stroke-opacity="0.55"/><text class="sans small" x="104" y="217">AI × MATEMATIKA</text><text class="sans" x="86" y="295" fill="#f8fafc" font-size="58" font-weight="850" letter-spacing="-1.8"><tspan x="86" dy="0">Ketika AI</tspan><tspan x="86" dy="66">Ikut Ngerjain</tspan><tspan x="86" dy="66">Misteri Matematika</tspan></text><rect x="88" y="475" width="410" height="8" rx="4" fill="url(#accent)"/><text class="sans" x="88" y="525" fill="#cbd5e1" font-size="24">Erdős Breakthrough • OpenAI • geometri kombinatorik</text></g>
<g transform="translate(1002 390)"><circle cx="0" cy="0" r="91" fill="#050505" stroke="#cbd5e1" stroke-opacity="0.28" stroke-width="2"/><g transform="translate(-72 -72) scale(1.14)" fill="#ffffff" opacity="0.98"><path d="M116.08484,51.5612512 C118.942613,42.9827523 117.960247,33.5883781 113.389602,25.7866659 C106.508682,13.8288345 92.6973243,7.67791081 79.2060928,10.5629523 C73.2060618,3.79625563 64.5786473,-0.0532364603 55.5351081,0.000556328614 C41.7355849,-0.0302926402 29.4968898,8.85809568 25.2575029,21.9903242 C16.3994728,23.8073685 8.75503049,29.3555286 4.28175645,37.2140378 C-2.63538569,49.152298 -1.05721438,64.1903007 8.18766065,74.4324294 C5.34111759,83.0030169 6.32316165,92.3843321 10.8828989,100.179624 C17.7575638,112.161259 31.5861367,118.328205 45.093799,115.436206 C51.0883814,122.194518 59.7036911,126.043062 68.737393,125.998425 C82.5369162,126.029451 94.7756114,117.141063 99.0149983,104.008834 C107.871293,102.191014 115.513744,96.6428507 119.985267,88.7851208 C126.920873,76.8497637 125.343882,61.7996855 116.08484,51.5612512 Z M68.737393,117.780853 C63.2141366,117.785642 57.8654034,115.846289 53.6287201,112.302718 C53.8149764,112.198634 54.1765327,112.017855 54.3847016,111.880902 L79.474521,97.3967357 C80.7562304,96.6686637 81.5441301,95.3045077 81.5342966,93.8304753 L81.5342966,58.4527343 L92.1344714,64.5718016 C92.2510065,64.6269956 92.3300309,64.7392935 92.3426402,64.8676205 L92.3426402,94.1482067 C92.3426402,107.189463 81.7786405,117.765729 68.737393,117.780853 L68.737393,117.780853 Z M18.0154196,96.1203322 C15.2495784,91.3404624 14.2510197,85.7407779 15.1941845,80.2995028 C15.3804408,80.4145435 15.7091284,80.6117561 15.9392097,80.7432311 L41.0345072,95.2328757 C42.3066308,95.9779237 43.8819348,95.9779237 45.1540584,95.2328757 L75.7713075,77.5275708 L75.7713075,89.7657055 C75.7828997,89.8935989 75.7268067,90.0182501 75.6233981,90.0943931 L50.2596723,104.731947 C38.9678692,111.233586 24.5441209,107.369119 18.0154196,96.0929416 L18.0154196,96.1203322 Z M11.4416678,41.3390671 C14.1945376,36.5519884 18.5445232,32.8865971 23.7291056,30.985408 L23.7291056,60.8083287 C23.7215951,62.2817457 24.5088656,63.6448123 25.7888811,64.3745891 L56.4116084,82.0579815 L45.7730867,88.1989613 C45.6677553,88.2698947 45.5335448,88.2822834 45.4170084,88.23183 L20.0587608,73.5887979 C8.77671207,67.0619249 4.91115861,52.6316692 11.4197553,41.3390671 L11.4416678,41.3390671 Z M98.5438794,61.6081352 L67.9211522,43.9247428 L78.5103707,37.8001973 C78.6160478,37.73024 78.7497514,37.7178982 78.8664489,37.7673286 L104.224697,52.4103608 C112.153676,56.9917322 116.718476,65.7447168 115.937024,74.8686966 C115.155572,83.9926763 109.16882,91.84194 100.576264,95.0082725 L100.576264,65.1908299 C100.593141,63.7135298 99.8092479,62.3427655 98.527445,61.6081352 L98.5438794,61.6081352 Z M109.100229,45.7215683 C108.913973,45.6065276 108.585285,45.4093151 108.355204,45.27784 L83.2599064,30.7881954 C81.9877828,30.0431474 80.4124789,30.0431474 79.1403553,30.7881954 L48.5173955,48.4661097 L48.5173955,36.2334532 C48.5132731,36.1056698 48.5702821,35.9835077 48.6710156,35.9047656 L74.0292632,21.2672115 C81.9611862,16.694978 91.8213323,17.1204093 99.3299585,22.3588493 C106.838585,27.5972893 110.641969,36.7043054 109.089273,45.7270464 L109.100229,45.7215683 Z M42.7382046,67.5464243 L32.1325516,61.427357 C32.0220863,61.3662676 31.9469493,61.2566082 31.9298541,61.1315382 L31.9298541,31.8509519 C31.9229009,22.6891727 37.2178921,14.3508632 45.5129032,10.4609995 C53.8079142,6.57113579 63.604525,7.83238731 70.6437811,13.6964407 C70.4575247,13.8005251 70.123359,13.9813033 69.8877996,14.1182564 L44.7979802,28.6024229 C43.5179646,29.3321997 42.7306941,30.6952663 42.7382046,32.1686833 L42.7382046,67.5464243 Z M48.4957155,55.1275115 L62.1362506,47.2499656 L75.7713075,55.1275115 L75.7713075,70.8716471 L62.1307724,78.749193 L48.4902374,70.8716471 L48.4957155,55.1275115 Z"/></g><text class="sans" x="0" y="132" fill="#e2e8f0" font-size="26" font-weight="700" text-anchor="middle">OpenAI</text></g>
<text class="sans" x="62" y="696" fill="#64748b" font-size="18">Preview thumbnail 16:9 • style casual-tech Wau</text>
</svg>
