<svg xmlns="http://www.w3.org/2000/svg" width="1200" height="630" viewBox="0 0 1200 630" fill="none">
  <defs>
    <linearGradient id="bg" x1="0" y1="0" x2="1200" y2="630" gradientUnits="userSpaceOnUse">
      <stop stop-color="#050816"/>
      <stop offset="0.55" stop-color="#0B1020"/>
      <stop offset="1" stop-color="#111827"/>
    </linearGradient>
    <linearGradient id="accent" x1="140" y1="120" x2="1040" y2="520" gradientUnits="userSpaceOnUse">
      <stop stop-color="#7C3AED"/>
      <stop offset="0.5" stop-color="#06B6D4"/>
      <stop offset="1" stop-color="#22C55E"/>
    </linearGradient>
    <filter id="shadow" x="-20%" y="-20%" width="140%" height="140%">
      <feDropShadow dx="0" dy="20" stdDeviation="30" flood-color="#000000" flood-opacity="0.35"/>
    </filter>
  </defs>

  <rect width="1200" height="630" fill="url(#bg)"/>
  <circle cx="1020" cy="130" r="160" fill="#7C3AED" fill-opacity="0.10"/>
  <circle cx="165" cy="525" r="190" fill="#06B6D4" fill-opacity="0.08"/>
  <path d="M0 510C150 470 230 420 320 390C410 360 515 350 620 375C735 403 815 470 935 500C1045 528 1135 522 1200 510V630H0V510Z" fill="#0F172A"/>

  <rect x="80" y="76" width="140" height="42" rx="21" fill="white" fill-opacity="0.08" stroke="white" stroke-opacity="0.14"/>
  <text x="152" y="103" text-anchor="middle" font-family="Inter, Arial, sans-serif" font-size="18" fill="#C7D2FE" letter-spacing="2">WAUPUTRA</text>

  <g filter="url(#shadow)">
    <rect x="80" y="150" width="1040" height="330" rx="34" fill="#0B1220" fill-opacity="0.92" stroke="white" stroke-opacity="0.10"/>
    <rect x="110" y="180" width="980" height="270" rx="24" fill="#020617" fill-opacity="0.72" stroke="white" stroke-opacity="0.08"/>
    <circle cx="145" cy="208" r="7" fill="#FF5F57"/>
    <circle cx="170" cy="208" r="7" fill="#FEBC2E"/>
    <circle cx="195" cy="208" r="7" fill="#28C840"/>

    <text x="145" y="270" font-family="Inter, Arial, sans-serif" font-size="26" fill="#94A3B8">$</text>
    <text x="180" y="270" font-family="JetBrains Mono, SFMono-Regular, Consolas, monospace" font-size="26" fill="#A78BFA">ai-agent</text>
    <text x="340" y="270" font-family="JetBrains Mono, SFMono-Regular, Consolas, monospace" font-size="26" fill="#E2E8F0">--mode</text>
    <text x="470" y="270" font-family="JetBrains Mono, SFMono-Regular, Consolas, monospace" font-size="26" fill="#22D3EE">cli</text>
    <text x="570" y="270" font-family="JetBrains Mono, SFMono-Regular, Consolas, monospace" font-size="26" fill="#E2E8F0">&gt;&gt;</text>
    <text x="660" y="270" font-family="JetBrains Mono, SFMono-Regular, Consolas, monospace" font-size="26" fill="#34D399">mcp</text>

    <text x="145" y="352" font-family="Inter, Arial, sans-serif" font-size="54" font-weight="800" fill="#F8FAFC">CLI vs MCP</text>
    <text x="145" y="404" font-family="Inter, Arial, sans-serif" font-size="44" font-weight="700" fill="#E2E8F0">untuk AI Agent</text>
    <text x="145" y="450" font-family="Inter, Arial, sans-serif" font-size="24" fill="#94A3B8">vibe coding apps berbasis CLI biar lebih composable, efisien, dan powerfull</text>

    <rect x="715" y="318" width="300" height="56" rx="16" fill="url(#accent)" fill-opacity="0.14" stroke="url(#accent)" stroke-opacity="0.45"/>
    <text x="865" y="353" text-anchor="middle" font-family="Inter, Arial, sans-serif" font-size="20" font-weight="700" fill="#F8FAFC">Open Source • AI • Unix Style</text>
  </g>

  <g opacity="0.95">
    <rect x="80" y="520" width="210" height="44" rx="22" fill="white" fill-opacity="0.08" stroke="white" stroke-opacity="0.12"/>
    <text x="185" y="548" text-anchor="middle" font-family="Inter, Arial, sans-serif" font-size="18" fill="#E2E8F0">Hermeneia</text>

    <rect x="305" y="520" width="210" height="44" rx="22" fill="white" fill-opacity="0.08" stroke="white" stroke-opacity="0.12"/>
    <text x="410" y="548" text-anchor="middle" font-family="Inter, Arial, sans-serif" font-size="18" fill="#E2E8F0">Rute Bayar</text>

    <rect x="530" y="520" width="180" height="44" rx="22" fill="white" fill-opacity="0.08" stroke="white" stroke-opacity="0.12"/>
    <text x="620" y="548" text-anchor="middle" font-family="Inter, Arial, sans-serif" font-size="18" fill="#E2E8F0">Kelompok</text>

    <rect x="725" y="520" width="140" height="44" rx="22" fill="white" fill-opacity="0.08" stroke="white" stroke-opacity="0.12"/>
    <text x="795" y="548" text-anchor="middle" font-family="Inter, Arial, sans-serif" font-size="18" fill="#E2E8F0">Mizan</text>
  </g>
</svg>
